# xmcd
#
# Track frame offsets:
#	150
#	16983
#	36304
#	49111
#
# Disc length: 872 seconds
#
# Revision: 0
# Processed by: cddbd v1.5.1PL0 Copyright (c) Steve Scherf et al.
# Submitted via: audiograbber 1.82.02
#
DISCID=2b036604
DTITLE=Molly - maj 2004
DYEAR=1900
DGENRE=
TTITLE0=Occasion
TTITLE1=In Tune
TTITLE2=Good to Go
TTITLE3=Litle Soldier
EXTD=
EXTT0=
EXTT1=
EXTT2=
EXTT3=
PLAYORDER=
